<?xml version="1.0" encoding="utf-8" ?><svg xmlns="http://www.w3.org/2000/svg" xmlns:xlink="http://www.w3.org/1999/xlink" width="1024" height="1024" viewBox="0 0 1024 1024"><path fill="#101924" d="M0 0L1024 0L1024 1024L0 1024L0 0Z"/><path fill="#2549E8" d="M317.183 328.725C327.324 336.834 337.922 346.621 347.751 355.319L400.215 401.853L440.236 436.819C447.458 443.145 456.78 451.04 463.427 457.803L634.529 609.209L684.345 653.38C694.265 662.1 707.154 672.829 716.551 681.972C716.389 702.719 716.374 723.467 716.506 744.214C727.753 732.65 740.657 718.722 749.882 705.541C786.973 652.543 803.309 588.074 802.46 523.992C802.142 503.059 799.751 482.209 795.324 461.747C802.221 460.688 806.472 458.114 812.195 457.24C817.904 478.865 821.768 500.936 823.747 523.214C828.676 585.589 814.854 653.293 782.731 707.235C745.243 770.219 684.2 815.666 613.111 833.518C554.598 848.34 493.024 845.68 436.008 825.866C428.619 823.226 409.28 815.824 403.486 811.384C496.797 834.468 582.099 834.451 667.212 783.791C673.785 779.879 681.677 774.512 687.642 769.789C662.761 749.544 636.58 725.325 612.245 703.936L474.586 582.836C469.553 578.397 425.723 541.367 423.923 538.43C420.863 536.561 413.256 529.807 410.399 527.273L390.295 509.457C366.349 488.478 340.107 466.463 317.05 444.863C316.541 407.032 316.702 366.53 317.183 328.725Z"/><path fill="#8025D7" d="M317.183 328.725C327.324 336.834 337.922 346.621 347.751 355.319L400.215 401.853L440.236 436.819C447.458 443.145 456.78 451.04 463.427 457.803C452.786 456.487 445.222 441.704 433.814 436.271C424.655 442.631 427.246 451.086 422.339 458.867C416.541 468.06 407.792 477.019 401.472 485.853C385.374 508.357 405.022 518.297 419.343 532.177C420.814 533.603 423.344 536.469 423.923 538.43C420.863 536.561 413.256 529.807 410.399 527.273L390.295 509.457C366.349 488.478 340.107 466.463 317.05 444.863C316.541 407.032 316.702 366.53 317.183 328.725Z"/><path fill="#151C8D" d="M317.505 465.681C321.87 467.539 342.422 485.875 347.442 490.236L398.753 535.052C407.02 542.296 418.347 551.331 425.975 558.791C425.548 577.637 425.863 597.086 425.905 615.969L425.935 711.815C411.041 725.696 392.734 739.847 377.172 753.496C363.061 765.348 349.391 777.902 335.173 789.648C329.414 794.407 323.568 799.717 317.489 804.02L317.505 465.681Z"/><defs><linearGradient id="gradient_0" gradientUnits="userSpaceOnUse" x1="688.79254" y1="632.3692" x2="681.29767" y2="402.0806"><stop offset="0" stop-color="#043AA3"/><stop offset="1" stop-color="#16A0FF"/></linearGradient></defs><path fill="url(#gradient_0)" d="M715.988 399.374C716.742 415.324 716.5 431.506 716.49 447.494L716.491 514.677L716.561 597.929C716.585 609.874 717.094 623.365 716.796 635.056L716.93 665.113C705.922 656.91 688.678 641.368 678.394 631.933C671.917 626.782 664.748 620.126 658.307 614.613L619.073 581.291L618.994 486.765C633.676 473.979 647.965 460.676 662.664 447.897C665.258 445.642 667.725 443.242 670.534 441.257C685.278 426.964 700.15 412.449 715.988 399.374Z"/><path fill="#151C8D" d="M618.994 486.765C633.676 473.979 647.965 460.676 662.664 447.897C665.258 445.642 667.725 443.242 670.534 441.257C672.007 442.77 672.994 443.432 673.464 445.387C672.684 450.773 667.262 460.488 664.964 465.936C662.645 471.432 661.424 474.617 659.765 480.339C643.916 535.012 650.833 578.057 677.886 627.316C678.504 629.494 678.693 629.762 678.394 631.933C671.917 626.782 664.748 620.126 658.307 614.613L619.073 581.291L618.994 486.765Z"/><path fill="#151C8D" d="M677.886 627.316C683.442 627 689.174 629.631 694.537 630.136C697.071 630.375 699.105 627.376 703.926 628.89C707.013 629.86 713.303 630.017 715.848 632.626C715.451 632.224 716.665 634.849 716.796 635.056L716.93 665.113C705.922 656.91 688.678 641.368 678.394 631.933C678.693 629.762 678.504 629.494 677.886 627.316Z"/><path fill="#2549E8" d="M602.604 147.319C608.658 152.687 614.12 285.241 623.399 303.921C637.17 331.647 643.46 328.985 672.835 334.4C691.761 337.889 720.091 341.293 737.609 348.703C723.305 350.589 708.504 353.407 694.154 355.567C679.715 357.861 665.202 359.676 650.992 363.17C639.528 365.988 627.436 372.841 623.033 384.425C617.024 400.232 616.73 418.81 614.525 435.542C610.858 463.356 609.343 492.645 603.455 520.071C602.879 515.688 602.275 511.308 601.641 506.933L595.671 457.266C594.812 449.842 594.058 442.411 593.146 434.952C590.171 410.645 589.368 374.78 561.075 365.949C546.129 361.285 529.501 359.405 514.051 356.915L475.37 350.415C469.206 349.375 460.328 348.318 454.523 346.374C477.321 344.793 501.578 339.808 524.387 337.226C534.825 336.044 546.073 334.029 556.236 331.701C568.605 328.867 578.402 321.469 582.321 309.168C589.523 287.293 590.141 264.546 592.57 241.864C595.901 210.428 597.863 178.569 602.604 147.319Z"/><path fill="#8025D7" d="M185.916 497.785C189.03 422.11 221.733 350.682 276.984 298.877C332.518 247.548 409.202 222.305 484.17 225.85C507.427 226.949 539.802 231.196 560.807 241.474C536.074 241.389 511.755 240.632 487.094 242.032C411.331 246.334 343.825 273.596 289.749 327.505C242.659 374.449 211.598 448.986 210.448 515.466L209.725 515.147L209.15 514.302C201.939 503.749 192.981 510.345 186.5 507.039C185.436 505.372 185.861 500.071 185.916 497.785Z"/><path fill="#151C8D" d="M315.139 759.852C310.653 757.544 305.054 753.615 300.818 750.692C278.299 735.316 258.429 716.38 241.985 694.628C205.585 646.209 187.716 588.478 185.451 528.185C185.168 520.653 184.87 505.159 185.916 497.785C185.861 500.071 185.436 505.372 186.5 507.039C192.981 510.345 201.939 503.749 209.15 514.302L209.725 515.147L210.448 515.466C210.392 524.197 210.257 533.505 210.841 542.202C214.958 601.453 235.914 658.296 271.243 706.041C285.686 725.681 300.921 741.398 315.139 759.852Z"/><path fill="#178EF2" d="M760.779 356.381C784.177 380.601 802.477 425.65 812.195 457.24C806.472 458.114 802.221 460.688 795.324 461.747C788.542 427.061 773.64 389.237 760.779 356.381Z"/></svg>